<?xml version="1.0" encoding="UTF-8"?>
<svg width="3600pt" height="3600pt" version="1.1" viewBox="0 0 3600 3600" xmlns="http://www.w3.org/2000/svg">
 <g fill="#F66A2E">
  <path d="m2846.9 525c-61.512-50.117-140.37-73.824-219.31-65.941-78.949 7.8867-151.55 46.723-201.94 108.02-50.383 61.289-74.434 140.04-66.891 219.02 7.543 78.98 46.066 151.76 107.14 202.4 167.39 137.29 288.25 322.95 346.05 531.58 57.789 208.63 49.68 430.02-23.219 633.87-72.898 203.84-207.02 380.17-384.01 504.84-176.98 124.67-388.18 191.58-604.67 191.58s-427.68-66.914-604.67-191.58c-176.99-124.67-311.11-301-384.01-504.84-72.898-203.84-81.008-425.23-23.219-633.87 57.793-208.63 178.66-394.3 346.05-531.58 41.781-33.066 74.004-76.664 93.352-126.31 19.348-49.648 25.121-103.55 16.734-156.17-8.3906-52.621-30.645-102.05-64.469-143.22-33.828-41.168-78.012-72.582-128-91.02-49.992-18.434-103.99-23.219-156.45-13.867-52.457 9.3555-101.48 32.508-142.02 67.086-262.93 215.79-452.75 507.57-543.46 835.39-90.715 327.82-77.898 675.68 36.695 995.93 114.6 320.26 325.37 597.28 603.47 793.14 278.1 195.86 609.93 300.98 950.07 300.98s671.98-105.12 950.08-300.98c278.1-195.86 488.87-472.88 603.46-793.14 114.59-320.26 127.41-668.11 36.695-995.93s-280.53-619.6-543.46-835.39z"/>
  <path d="m1800 2100c52.66 0 104.39-13.863 150-40.191 45.605-26.332 83.477-64.203 109.81-109.81 26.328-45.605 40.191-97.34 40.191-150v-1350c0-79.566-31.605-155.87-87.867-212.13-56.262-56.262-132.57-87.867-212.13-87.867s-155.87 31.605-212.13 87.867c-56.262 56.262-87.867 132.57-87.867 212.13v1350c0 52.66 13.863 104.39 40.191 150 26.332 45.605 64.203 83.477 109.81 109.81 45.605 26.328 97.34 40.191 150 40.191z"/>
 </g>
</svg>
