<svg xmlns="http://www.w3.org/2000/svg" width="1713" height="893" viewBox="0 0 1713 893" version="1.1"><path d="M 1098.930 2.403 C 1098.621 2.712, 1082.423 3.458, 1062.934 4.061 C 1000.519 5.993, 954.947 8.596, 931.500 11.569 C 929.300 11.848, 921.200 12.536, 913.500 13.099 C 885.151 15.170, 865.396 17.057, 846 19.545 C 839.125 20.427, 830.125 21.535, 826 22.007 C 821.875 22.479, 814.450 23.355, 809.500 23.953 C 804.550 24.550, 796.900 25.454, 792.500 25.959 C 782.599 27.097, 771.246 28.696, 764 29.971 C 760.975 30.504, 756.700 31.193, 754.500 31.502 C 752.300 31.811, 747.462 32.499, 743.750 33.032 C 740.038 33.564, 733.962 34.432, 730.250 34.959 C 720.386 36.361, 712.591 37.666, 703 39.519 C 698.325 40.422, 692.025 41.389, 689 41.669 C 685.975 41.948, 683.072 42.586, 682.550 43.088 C 682.027 43.590, 679.896 44, 677.814 44 C 675.732 44, 672.110 44.432, 669.764 44.959 C 667.419 45.487, 662.800 46.424, 659.500 47.042 C 656.200 47.659, 651.475 48.643, 649 49.228 C 646.525 49.813, 642.250 50.694, 639.500 51.185 C 621.688 54.367, 611.044 56.509, 598.500 59.433 C 588.443 61.778, 582.073 63.064, 577.500 63.673 C 575.300 63.965, 573.072 64.609, 572.550 65.102 C 572.027 65.596, 570.452 66.013, 569.050 66.029 C 567.647 66.045, 563.350 66.977, 559.500 68.100 C 555.650 69.223, 550.587 70.560, 548.250 71.071 C 545.912 71.582, 541.975 72.450, 539.500 73 C 537.025 73.550, 533.088 74.403, 530.750 74.896 C 528.413 75.388, 524.025 76.519, 521 77.408 C 517.975 78.298, 514.027 79.305, 512.226 79.647 C 510.425 79.990, 508.711 80.659, 508.417 81.135 C 508.123 81.611, 506.360 82, 504.500 82 C 502.640 82, 500.840 82.450, 500.500 83 C 500.160 83.550, 498.360 84, 496.500 84 C 494.640 84, 492.840 84.450, 492.500 85 C 492.160 85.550, 490.805 86, 489.488 86 C 488.171 86, 486.060 86.392, 484.797 86.871 C 483.534 87.349, 479.800 88.527, 476.500 89.489 C 473.200 90.450, 469.375 91.581, 468 92.002 C 466.625 92.423, 463.475 93.322, 461 94 C 458.525 94.678, 455.375 95.577, 454 95.998 C 452.625 96.419, 448.800 97.548, 445.500 98.506 C 442.200 99.465, 438.719 100.643, 437.764 101.124 C 436.809 101.606, 434.923 102, 433.573 102 C 432.223 102, 430.840 102.450, 430.500 103 C 430.160 103.550, 429.002 104, 427.927 104 C 426.852 104, 425.191 104.405, 424.236 104.900 C 423.281 105.396, 419.800 106.613, 416.500 107.606 C 413.200 108.599, 410.073 109.768, 409.550 110.205 C 409.028 110.642, 407.592 111, 406.359 111 C 405.126 111, 403.840 111.450, 403.500 112 C 403.160 112.550, 401.585 113, 400 113 C 398.415 113, 396.840 113.450, 396.500 114 C 396.160 114.550, 394.859 115, 393.608 115 C 392.357 115, 391.025 115.308, 390.648 115.685 C 389.952 116.381, 386.124 117.858, 378 120.564 C 375.525 121.388, 372.719 122.499, 371.764 123.032 C 370.809 123.564, 369.211 124, 368.214 124 C 367.216 124, 365.972 124.359, 365.450 124.798 C 364.927 125.237, 362.025 126.400, 359 127.383 C 355.975 128.366, 352.488 129.582, 351.250 130.085 C 350.012 130.588, 347.875 131.450, 346.500 132 C 345.125 132.550, 342.988 133.406, 341.750 133.903 C 340.512 134.399, 336.350 136.027, 332.500 137.520 C 328.650 139.012, 324.375 140.691, 323 141.251 C 321.625 141.810, 319.600 142.606, 318.500 143.020 C 317.400 143.434, 312.805 145.399, 308.289 147.386 C 303.773 149.374, 299.830 151, 299.528 151 C 299.226 151, 297.071 151.847, 294.739 152.882 C 284.578 157.395, 280.279 159.289, 277 160.701 C 261.190 167.506, 214.158 191.186, 201.206 198.862 C 198.294 200.588, 195.482 202, 194.956 202 C 194.430 202, 194 202.450, 194 203 C 194 203.550, 193.528 204, 192.952 204 C 192.376 204, 189.442 205.575, 186.433 207.500 C 183.423 209.425, 180.738 211, 180.466 211 C 179.541 211, 151.502 229.356, 151.167 230.181 C 150.983 230.631, 150.308 231.004, 149.667 231.010 C 148.683 231.018, 146.341 232.642, 138.500 238.753 C 137.950 239.181, 134.350 241.747, 130.500 244.454 C 122.233 250.268, 98.042 269.899, 92.909 274.960 C 90.934 276.907, 85.823 281.863, 81.550 285.972 C 73.992 293.242, 60.707 307.443, 55.795 313.500 C 46.400 325.089, 33 343.881, 33 345.469 C 33 345.706, 31.704 347.835, 30.120 350.200 C 20.979 363.846, 9.146 392.642, 5.956 409 C 5.473 411.475, 4.518 416.200, 3.833 419.500 C 3.031 423.363, 2.618 433.691, 2.674 448.500 C 2.761 471.557, 3.412 480.677, 5.097 482.450 C 5.594 482.973, 6 485.004, 6 486.964 C 6 488.924, 6.951 492.997, 8.113 496.014 C 9.275 499.031, 10.452 502.743, 10.728 504.262 C 11.004 505.781, 11.629 507.271, 12.115 507.571 C 12.602 507.872, 13 508.990, 13 510.055 C 13 511.804, 14.904 516.296, 22.085 531.486 C 25.284 538.254, 35.815 555.514, 42.741 565.342 C 52.794 579.607, 60.848 588.890, 78.017 606 C 91.093 619.030, 94.531 622.212, 104.500 630.507 C 107.800 633.253, 110.725 635.749, 111 636.053 C 111.275 636.357, 113.300 637.929, 115.500 639.547 C 117.700 641.165, 119.725 642.740, 120 643.047 C 120.275 643.354, 122.291 644.932, 124.480 646.553 C 126.669 648.174, 129.144 650.047, 129.980 650.715 C 135.128 654.829, 141.155 659.101, 154 667.737 C 161.975 673.098, 168.950 677.668, 169.500 677.891 C 170.050 678.114, 172.381 679.580, 174.680 681.148 C 176.979 682.717, 179.108 684, 179.411 684 C 179.713 684, 182.423 685.575, 185.433 687.500 C 188.442 689.425, 191.376 691, 191.952 691 C 192.528 691, 193 691.450, 193 692 C 193 692.550, 193.460 693, 194.021 693 C 194.583 693, 196.721 694.081, 198.771 695.402 C 205.957 700.031, 256.741 725.957, 271 732.276 C 272.925 733.129, 277.200 735.040, 280.500 736.522 C 283.800 738.003, 287.850 739.790, 289.500 740.492 C 291.150 741.193, 294.750 742.763, 297.500 743.981 C 308.106 748.676, 311.436 750.055, 317 752.057 C 318.925 752.750, 322.975 754.407, 326 755.739 C 333.188 758.905, 334.811 759.562, 339 761 C 340.925 761.661, 343.400 762.553, 344.500 762.981 C 345.600 763.410, 348.525 764.536, 351 765.483 C 353.475 766.430, 356.281 767.609, 357.236 768.103 C 358.191 768.596, 359.804 769, 360.820 769 C 361.836 769, 362.972 769.305, 363.344 769.678 C 363.717 770.050, 366.829 771.340, 370.261 772.543 C 384.227 777.440, 386.574 778.300, 388.236 779.132 C 389.191 779.609, 390.660 780, 391.500 780 C 392.340 780, 393.809 780.408, 394.764 780.908 C 395.719 781.407, 398.750 782.503, 401.500 783.344 C 408.550 785.500, 413.217 787.127, 415.236 788.134 C 416.191 788.610, 417.852 789, 418.927 789 C 420.002 789, 421.160 789.450, 421.500 790 C 421.840 790.550, 423.223 791, 424.573 791 C 425.923 791, 427.809 791.404, 428.764 791.899 C 431.821 793.482, 446.669 798, 448.812 798 C 449.951 798, 451.160 798.450, 451.500 799 C 451.840 799.550, 453.223 800, 454.573 800 C 455.923 800, 457.809 800.405, 458.764 800.900 C 459.719 801.396, 463.200 802.584, 466.500 803.541 C 469.800 804.499, 473.625 805.616, 475 806.025 C 476.375 806.434, 479.525 807.301, 482 807.952 C 484.475 808.603, 487.882 809.555, 489.571 810.068 C 491.260 810.580, 493.404 811, 494.335 811 C 495.265 811, 496.809 811.408, 497.764 811.906 C 498.719 812.404, 502.425 813.575, 506 814.507 C 509.575 815.439, 513.534 816.606, 514.797 817.101 C 516.060 817.595, 518.396 818, 519.988 818 C 521.580 818, 523.160 818.450, 523.500 819 C 523.840 819.550, 525.297 820, 526.738 820 C 528.179 820, 530.740 820.430, 532.429 820.957 C 534.118 821.483, 540.225 823.077, 546 824.500 C 551.775 825.923, 557.882 827.517, 559.571 828.043 C 561.260 828.570, 563.478 829, 564.500 829 C 565.522 829, 567.740 829.417, 569.429 829.926 C 571.118 830.436, 577.900 832.039, 584.500 833.489 C 591.100 834.939, 597.882 836.547, 599.571 837.062 C 601.260 837.578, 603.983 838, 605.621 838 C 607.259 838, 609.027 838.406, 609.550 838.903 C 610.072 839.400, 612.525 840.048, 615 840.344 C 620.752 841.032, 627.672 842.352, 636.500 844.446 C 640.350 845.359, 645.975 846.517, 649 847.020 C 652.025 847.522, 656.975 848.401, 660 848.971 C 663.025 849.542, 668.200 850.428, 671.500 850.941 C 674.800 851.454, 681.100 852.584, 685.500 853.453 C 699.069 856.131, 714.724 858.630, 725.556 859.848 C 729.436 860.285, 733.040 860.907, 733.564 861.230 C 734.088 861.554, 736.763 861.934, 739.508 862.074 C 742.254 862.215, 745.175 862.660, 746 863.064 C 747.419 863.759, 755.734 865.061, 771.500 867.056 C 788.334 869.187, 795.978 870.124, 803 870.917 C 807.125 871.383, 811.625 872.023, 813 872.338 C 816.678 873.182, 831.069 875.016, 842.500 876.098 C 848 876.619, 856.775 877.482, 862 878.017 C 867.225 878.551, 876.450 879.424, 882.500 879.956 C 906.531 882.068, 914.921 882.893, 918.139 883.458 C 926.245 884.881, 973.024 887.865, 1038 891.105 C 1069.472 892.674, 1121 893.247, 1121 892.028 C 1121 891.462, 1118.862 890.971, 1116.250 890.935 C 1055.576 890.100, 950.703 885.227, 934.501 882.490 C 931.499 881.983, 916.618 880.655, 895 878.966 C 888.675 878.472, 878.550 877.581, 872.500 876.988 C 866.450 876.394, 857.225 875.507, 852 875.016 C 846.775 874.526, 841.600 873.873, 840.500 873.566 C 839.400 873.258, 834.225 872.521, 829 871.928 C 816.213 870.475, 806.023 869.251, 797 868.083 C 792.875 867.548, 785.450 866.656, 780.500 866.100 C 775.550 865.544, 767.450 864.357, 762.500 863.462 C 757.550 862.568, 750.350 861.413, 746.500 860.895 C 742.650 860.378, 736.462 859.514, 732.750 858.977 C 729.038 858.440, 722.962 857.574, 719.250 857.052 C 709.035 855.618, 699.717 854.036, 697.646 853.383 C 696.627 853.062, 693.252 852.396, 690.146 851.902 C 679.149 850.155, 668.752 848.389, 655.750 846.059 C 652.862 845.542, 647.350 844.407, 643.500 843.536 C 639.650 842.665, 634.025 841.496, 631 840.937 C 627.975 840.379, 623.475 839.523, 621 839.036 C 618.525 838.549, 614.475 837.857, 612 837.498 C 609.525 837.140, 606.600 836.489, 605.500 836.051 C 604.400 835.614, 599.900 834.494, 595.500 833.563 C 591.100 832.632, 586.118 831.449, 584.429 830.935 C 582.740 830.421, 580.017 830, 578.379 830 C 576.741 830, 574.973 829.596, 574.450 829.102 C 573.928 828.609, 571.700 827.970, 569.500 827.684 C 567.300 827.397, 563.700 826.730, 561.500 826.202 C 553.144 824.194, 540.379 820.885, 537.429 819.962 C 535.740 819.433, 533.522 819, 532.500 819 C 531.478 819, 529.260 818.580, 527.571 818.068 C 525.882 817.555, 522.700 816.682, 520.500 816.128 C 518.300 815.573, 514.025 814.412, 511 813.547 C 504.558 811.706, 496.839 809.629, 486.500 806.953 C 484.850 806.527, 481.250 805.515, 478.500 804.706 C 475.750 803.896, 471.475 802.688, 469 802.020 C 466.525 801.352, 463.719 800.399, 462.764 799.903 C 461.809 799.406, 460.142 799, 459.061 799 C 457.979 799, 456.060 798.573, 454.797 798.051 C 453.534 797.529, 448.450 795.914, 443.500 794.462 C 438.550 793.010, 433.719 791.412, 432.764 790.911 C 431.809 790.410, 429.923 790, 428.573 790 C 427.223 790, 425.872 789.602, 425.571 789.115 C 425.271 788.629, 423.781 788.014, 422.262 787.749 C 419.276 787.228, 407.590 783.308, 404.764 781.878 C 403.809 781.395, 402.340 781, 401.500 781 C 400.660 781, 399.191 780.605, 398.236 780.123 C 397.281 779.640, 394.700 778.703, 392.500 778.041 C 386.465 776.223, 374.728 771.999, 372.764 770.938 C 371.809 770.422, 370.211 770, 369.214 770 C 368.216 770, 366.973 769.641, 366.450 769.202 C 365.928 768.763, 363.025 767.575, 360 766.562 C 356.975 765.549, 354.072 764.333, 353.550 763.860 C 353.027 763.387, 351.784 763, 350.786 763 C 349.789 763, 348.191 762.603, 347.236 762.117 C 345.336 761.150, 344.857 760.953, 331 755.439 C 325.775 753.360, 321.072 751.285, 320.550 750.829 C 320.027 750.373, 318.784 750, 317.786 750 C 316.789 750, 315.191 749.603, 314.236 749.117 C 313.281 748.631, 311.375 747.768, 310 747.199 C 308.625 746.630, 305.025 745.057, 302 743.702 C 298.975 742.347, 294.925 740.549, 293 739.706 C 291.075 738.863, 286.800 736.960, 283.500 735.478 C 280.200 733.997, 275.925 732.114, 274 731.295 C 265.481 727.670, 230.757 710.644, 220 704.818 C 213.237 701.155, 208.020 698.241, 193.325 689.919 C 191.304 688.774, 187.245 686.299, 184.306 684.419 C 181.366 682.538, 178.724 681, 178.433 681 C 178.143 681, 172.639 677.527, 166.203 673.282 C 159.766 669.038, 153.263 664.932, 151.750 664.158 C 150.238 663.384, 149 662.356, 149 661.875 C 149 661.394, 148.483 661, 147.851 661 C 146.365 661, 122.240 642.835, 110.015 632.511 C 104.798 628.105, 99.398 623.609, 98.015 622.521 C 94.857 620.036, 67.821 593.045, 62.435 587 C 54.081 577.624, 34 550.525, 34 548.626 C 34 548.303, 32.495 545.668, 30.655 542.769 C 26.919 536.883, 16 514.747, 16 513.059 C 16 512.462, 15.602 511.191, 15.115 510.236 C 13.889 507.831, 9.883 495.342, 8.783 490.500 C 6.123 478.786, 3.767 459.408, 3.677 448.500 C 3.538 431.698, 8.629 401.658, 13.123 392.764 C 13.605 391.809, 14 390.148, 14 389.073 C 14 387.998, 14.450 386.840, 15 386.500 C 15.550 386.160, 16 385.034, 16 383.998 C 16 381.701, 26.120 360.504, 30.690 353.231 C 32.510 350.332, 34 347.759, 34 347.512 C 34 346.956, 43.135 332.691, 43.934 332 C 44.251 331.725, 45.835 329.700, 47.453 327.500 C 49.071 325.300, 50.665 323.275, 50.995 323 C 51.326 322.725, 52.681 320.925, 54.006 319 C 60.926 308.949, 90.916 278.603, 106.500 265.883 C 111.450 261.842, 116.357 257.755, 117.404 256.800 C 118.452 255.845, 122.898 252.462, 127.285 249.282 C 131.672 246.102, 139.365 240.476, 144.381 236.779 C 149.396 233.083, 154.063 230.046, 154.750 230.029 C 155.438 230.013, 156 229.550, 156 229 C 156 228.450, 156.428 228, 156.952 228 C 157.476 228, 160.801 225.975, 164.341 223.500 C 167.882 221.025, 171.053 219, 171.387 219 C 171.722 219, 174.188 217.425, 176.867 215.500 C 179.547 213.575, 182.010 212, 182.341 212 C 182.672 212, 186.443 209.917, 190.721 207.371 C 207.756 197.235, 209.904 196.079, 238.561 181.621 C 262.073 169.758, 280.205 161, 281.251 161 C 281.658 161, 285.401 159.425, 289.569 157.500 C 293.736 155.575, 297.343 154, 297.584 154 C 297.825 154, 300.154 153.048, 302.761 151.884 C 305.367 150.720, 309.075 149.114, 311 148.316 C 312.925 147.518, 315.512 146.445, 316.750 145.932 C 321.028 144.160, 324.830 142.657, 335.500 138.520 C 344.645 134.974, 347.136 133.952, 349.236 132.883 C 350.191 132.397, 351.660 132, 352.500 132 C 353.340 132, 354.809 131.578, 355.764 131.062 C 356.719 130.546, 360.875 128.943, 365 127.500 C 369.125 126.057, 373.281 124.454, 374.236 123.938 C 375.191 123.422, 376.852 123, 377.927 123 C 379.002 123, 380.160 122.550, 380.500 122 C 380.840 121.450, 381.998 121, 383.073 121 C 384.148 121, 385.809 120.605, 386.764 120.122 C 390.979 117.991, 396.187 116, 397.547 116 C 398.361 116, 399.809 115.594, 400.764 115.097 C 401.719 114.601, 404.525 113.650, 407 112.983 C 409.475 112.317, 412.400 111.414, 413.500 110.976 C 414.600 110.538, 419.325 108.966, 424 107.484 C 428.675 106.001, 433.281 104.385, 434.236 103.894 C 435.191 103.402, 436.885 103, 438 103 C 439.115 103, 440.809 102.591, 441.764 102.092 C 443.281 101.298, 451.265 98.827, 461.750 95.906 C 463.538 95.407, 466.462 94.575, 468.250 94.056 C 470.038 93.537, 473.075 92.676, 475 92.143 C 476.925 91.610, 481.200 90.411, 484.500 89.479 C 495.999 86.232, 500.653 85.004, 508.500 83.143 C 510.700 82.621, 517 80.965, 522.500 79.463 C 532.035 76.858, 535.435 76.014, 544.500 74.003 C 555.105 71.650, 557.933 70.968, 563.500 69.418 C 566.800 68.500, 571.413 67.355, 573.750 66.874 C 576.087 66.393, 580.138 65.532, 582.750 64.959 C 585.362 64.387, 589.750 63.494, 592.500 62.976 C 597.819 61.973, 601.322 61.188, 612.500 58.494 C 616.350 57.566, 621.750 56.418, 624.500 55.943 C 627.250 55.467, 631.750 54.649, 634.500 54.125 C 637.250 53.600, 642.200 52.684, 645.500 52.088 C 648.800 51.493, 654.875 50.302, 659 49.442 C 663.125 48.583, 668.750 47.492, 671.500 47.019 C 679.423 45.657, 690.025 43.902, 696 42.965 C 699.025 42.491, 703.075 41.824, 705 41.483 C 706.925 41.142, 711.875 40.262, 716 39.528 C 726.961 37.577, 735.959 36.203, 752 34.031 C 765.829 32.158, 773.886 31.008, 784 29.464 C 789.775 28.582, 798.325 27.417, 803 26.875 C 807.675 26.333, 815.100 25.451, 819.500 24.915 C 823.900 24.379, 831.325 23.552, 836 23.076 C 860.971 20.535, 866.633 19.877, 868 19.355 C 870.562 18.377, 898.932 15.981, 954 12.092 C 961.975 11.529, 971.200 10.793, 974.500 10.456 C 1010.378 6.797, 1098.324 4.121, 1180.500 4.187 C 1238.743 4.234, 1295.546 5.207, 1296.510 6.175 C 1296.880 6.546, 1296.906 7.722, 1296.567 8.788 C 1295.852 11.040, 1292.542 11.621, 1272.500 13.013 C 1253.423 14.338, 1212.398 17.976, 1194 19.974 C 1188.775 20.542, 1180 21.426, 1174.500 21.938 C 1164.405 22.879, 1119.216 28.215, 1097.250 31.061 C 1093.263 31.577, 1086.737 32.413, 1082.750 32.917 C 1078.763 33.421, 1070.325 34.580, 1064 35.493 C 1057.675 36.405, 1049.575 37.574, 1046 38.090 C 1042.425 38.606, 1037.700 39.260, 1035.500 39.543 C 1033.300 39.827, 1029.025 40.486, 1026 41.010 C 1022.975 41.533, 1013.300 43.093, 1004.500 44.477 C 995.700 45.862, 986.328 47.445, 983.674 47.997 C 981.019 48.549, 977.676 49, 976.245 49 C 974.813 49, 972.260 49.419, 970.571 49.931 C 968.882 50.444, 964.575 51.322, 961 51.882 C 951.628 53.352, 937.147 55.930, 932.500 56.955 C 930.300 57.440, 925.913 58.324, 922.750 58.919 C 919.587 59.513, 914.413 60.487, 911.250 61.081 C 908.087 61.676, 903.700 62.539, 901.500 62.999 C 899.300 63.459, 893.675 64.575, 889 65.479 C 884.325 66.383, 879.118 67.545, 877.429 68.061 C 875.740 68.577, 873.522 69, 872.500 69 C 871.478 69, 869.260 69.415, 867.571 69.923 C 865.882 70.431, 862.250 71.305, 859.500 71.864 C 854.947 72.791, 847.665 74.408, 836.250 77.025 C 833.913 77.561, 829.862 78.478, 827.250 79.063 C 824.638 79.648, 820.925 80.527, 819 81.018 C 817.075 81.508, 808.750 83.521, 800.500 85.491 C 792.250 87.461, 783.700 89.544, 781.500 90.119 C 779.300 90.694, 775.925 91.566, 774 92.056 C 766.526 93.958, 758.398 96.269, 756.203 97.115 C 754.940 97.602, 752.829 98, 751.512 98 C 750.195 98, 748.840 98.450, 748.500 99 C 748.160 99.550, 746.928 100, 745.762 100 C 744.596 100, 742.260 100.451, 740.571 101.002 C 736.150 102.444, 710.484 109.890, 704 111.612 C 693.155 114.491, 630.673 134.631, 625.500 136.915 C 624.400 137.401, 622.150 138.256, 620.500 138.815 C 612.283 141.602, 592.693 148.693, 589.500 150.037 C 588.400 150.500, 579.400 154.085, 569.500 158.004 C 559.600 161.923, 549.592 166, 547.261 167.065 C 544.929 168.129, 542.803 169, 542.536 169 C 542.269 169, 539.001 170.389, 535.275 172.087 C 526.561 176.059, 523.512 177.395, 518.008 179.655 C 512.631 181.863, 462.202 207.005, 456.500 210.320 C 454.300 211.599, 450.025 213.956, 447 215.556 C 443.975 217.157, 438.458 220.387, 434.740 222.734 C 431.022 225.080, 427.764 227, 427.500 227 C 427.236 227, 423.978 228.950, 420.260 231.333 C 416.541 233.717, 412.987 235.854, 412.361 236.083 C 410.213 236.869, 382.630 255.954, 371.583 264.297 C 326.857 298.077, 291.339 338.340, 273.684 375.277 C 268.139 386.877, 260.741 408.686, 259.022 418.500 C 258.347 422.350, 257.391 427.660, 256.898 430.299 C 255.672 436.849, 255.769 454.338, 257.090 465.387 C 258.874 480.292, 262.845 495.510, 268.864 510.500 C 270.548 514.694, 279.186 531.865, 282.798 538.198 C 285.685 543.259, 299.434 562.925, 302.236 566 C 303.489 567.375, 306.752 571.200, 309.487 574.500 C 317.577 584.262, 330.806 597.631, 341.500 606.852 C 347 611.595, 353.005 616.831, 354.846 618.487 C 356.686 620.144, 365.011 626.554, 373.346 632.730 C 381.680 638.907, 388.971 644.351, 389.546 644.829 C 390.121 645.306, 391.021 645.878, 391.546 646.099 C 392.071 646.319, 399.087 650.887, 407.137 656.250 C 415.188 661.612, 422.093 666, 422.483 666 C 422.872 666, 424.386 666.836, 425.846 667.857 C 427.306 668.878, 430.525 670.840, 433 672.216 C 442.838 677.685, 445.541 679.246, 446.500 680.014 C 450.347 683.094, 502.996 709.451, 521 717.311 C 524.025 718.631, 528.638 720.676, 531.250 721.856 C 541.711 726.578, 545 728, 545.462 728 C 545.728 728, 548.545 729.172, 551.723 730.603 C 554.900 732.035, 558.400 733.550, 559.500 733.970 C 560.600 734.389, 562.625 735.193, 564 735.757 C 565.375 736.320, 570.775 738.454, 576 740.500 C 588.949 745.569, 588.840 745.526, 594.574 747.849 C 597.365 748.979, 601.865 750.624, 604.574 751.503 C 607.283 752.382, 610.400 753.498, 611.500 753.984 C 614.723 755.408, 630.126 760.686, 650 767.176 C 660.175 770.500, 669.400 773.574, 670.500 774.009 C 673.732 775.286, 695.020 781.853, 701 783.418 C 704.025 784.209, 710.325 786.056, 715 787.522 C 719.675 788.987, 725.075 790.620, 727 791.150 C 728.925 791.679, 731.850 792.497, 733.500 792.967 C 735.150 793.437, 739.875 794.738, 744 795.858 C 748.125 796.979, 754.200 798.638, 757.500 799.545 C 760.800 800.451, 765.075 801.560, 767 802.009 C 771.588 803.077, 810.486 812.797, 815 814.002 C 820.705 815.525, 836.171 819.211, 840.750 820.139 C 849.750 821.962, 856.968 823.510, 870.500 826.518 C 886.682 830.115, 894.782 831.753, 912 834.914 C 914.475 835.369, 921.225 836.692, 927 837.856 C 944.660 841.414, 947.253 841.899, 954.500 843 C 958.350 843.585, 963.750 844.486, 966.500 845.002 C 969.250 845.518, 975.550 846.641, 980.500 847.497 C 985.450 848.353, 990.850 849.301, 992.500 849.604 C 994.150 849.907, 998.425 850.583, 1002 851.108 C 1005.575 851.633, 1011.425 852.512, 1015 853.062 C 1018.575 853.612, 1024.200 854.466, 1027.500 854.960 C 1030.800 855.454, 1038 856.579, 1043.500 857.460 C 1049 858.340, 1057.100 859.526, 1061.500 860.094 C 1065.900 860.663, 1072.425 861.520, 1076 862 C 1079.575 862.480, 1086.100 863.343, 1090.500 863.919 C 1094.900 864.495, 1103.450 865.649, 1109.500 866.483 C 1115.550 867.317, 1123.425 868.248, 1127 868.553 C 1130.575 868.857, 1134.576 869.332, 1135.890 869.607 C 1137.205 869.883, 1142.605 870.538, 1147.890 871.062 C 1153.176 871.586, 1161.325 872.465, 1166 873.014 C 1170.675 873.563, 1179 874.434, 1184.500 874.950 C 1190 875.465, 1201.475 876.599, 1210 877.468 C 1218.525 878.338, 1230.900 879.480, 1237.500 880.005 C 1244.100 880.531, 1254.900 881.428, 1261.500 881.998 C 1272.924 882.987, 1283.429 883.742, 1315.849 885.906 C 1323.740 886.433, 1330.387 887.054, 1330.619 887.286 C 1331.865 888.531, 1276.533 890.829, 1242.250 890.955 C 1234.466 890.984, 1230 891.379, 1230 892.040 C 1230 893.055, 1263.851 892.820, 1313.312 891.462 L 1333.125 890.917 1332.812 888.216 C 1332.533 885.804, 1331.964 885.434, 1327.500 884.760 C 1322.098 883.945, 1292.881 882.074, 1273.500 881.302 C 1266.900 881.039, 1261.050 880.474, 1260.500 880.045 C 1259.950 879.617, 1254.135 879.181, 1247.578 879.076 C 1241.021 878.972, 1234.863 878.462, 1233.894 877.943 C 1232.924 877.424, 1228.081 877, 1223.131 877 C 1218.180 877, 1212.863 876.518, 1211.315 875.928 C 1209.767 875.339, 1203.100 874.434, 1196.500 873.917 C 1189.900 873.401, 1180 872.504, 1174.500 871.925 C 1153.104 869.671, 1145.206 868.925, 1137.500 868.432 C 1133.100 868.151, 1128.825 867.633, 1128 867.281 C 1126.203 866.515, 1111.652 864.497, 1082.500 860.971 C 1078.100 860.439, 1071.125 859.734, 1067 859.404 C 1062.875 859.074, 1059.072 858.398, 1058.550 857.902 C 1058.027 857.406, 1055.244 857, 1052.365 857 C 1049.486 857, 1045.863 856.495, 1044.315 855.877 C 1042.767 855.259, 1038.350 854.343, 1034.500 853.841 C 1030.650 853.340, 1024.350 852.496, 1020.500 851.966 C 1016.650 851.436, 1010.575 850.730, 1007 850.396 C 1003.425 850.063, 1000.072 849.387, 999.550 848.895 C 999.027 848.403, 996.410 848, 993.734 848 C 991.058 848, 988.084 847.580, 987.126 847.067 C 986.168 846.555, 982.260 845.632, 978.442 845.017 C 974.624 844.402, 968.913 843.471, 965.750 842.949 C 950.616 840.451, 948.130 840.072, 943 839.482 C 939.975 839.134, 936.825 838.576, 936 838.242 C 934.111 837.476, 924.140 835.193, 917.250 833.948 C 881.343 827.461, 878.154 826.806, 868.429 823.913 C 866.740 823.411, 863.954 823, 862.238 823 C 860.522 823, 858.840 822.550, 858.500 822 C 858.160 821.450, 855.974 821, 853.641 821 C 851.308 821, 848.973 820.596, 848.450 820.102 C 847.928 819.609, 845.700 818.961, 843.500 818.663 C 839.351 818.102, 829.619 815.792, 827 814.747 C 825.427 814.119, 821.061 813.261, 814.744 812.338 C 812.678 812.036, 810.739 811.386, 810.435 810.894 C 810.131 810.402, 808.135 810, 806 810 C 803.865 810, 801.840 809.550, 801.500 809 C 801.160 808.450, 799.613 808, 798.063 808 C 796.513 808, 793.629 807.325, 791.654 806.500 C 789.680 805.675, 786.726 805, 785.091 805 C 783.456 805, 781.840 804.550, 781.500 804 C 781.160 803.450, 779.928 803, 778.762 803 C 777.596 803, 775.260 802.580, 773.571 802.068 C 771.882 801.555, 768.475 800.618, 766 799.985 C 757.241 797.745, 750.478 795.740, 748.764 794.876 C 747.809 794.394, 745.698 794, 744.073 794 C 742.448 794, 740.840 793.550, 740.500 793 C 740.160 792.450, 738.360 792, 736.500 792 C 734.640 792, 732.840 791.550, 732.500 791 C 732.160 790.450, 730.585 790, 729 790 C 727.415 790, 725.864 789.589, 725.554 789.087 C 725.243 788.585, 723.194 787.871, 721 787.500 C 718.806 787.129, 716.757 786.415, 716.446 785.913 C 716.136 785.411, 714.585 785, 713 785 C 711.415 785, 709.840 784.550, 709.500 784 C 709.160 783.450, 707.585 783, 706 783 C 704.415 783, 702.840 782.550, 702.500 782 C 702.160 781.450, 700.585 781, 699 781 C 697.415 781, 695.871 780.600, 695.568 780.110 C 695.266 779.621, 693.552 778.993, 691.759 778.715 C 688.404 778.193, 676.847 774.447, 673.764 772.882 C 672.809 772.397, 670.923 772, 669.573 772 C 668.223 772, 666.872 771.602, 666.571 771.115 C 666.271 770.629, 664.781 770.014, 663.262 769.749 C 660.276 769.228, 648.590 765.308, 645.764 763.878 C 644.809 763.395, 643.148 763, 642.073 763 C 640.998 763, 639.840 762.550, 639.500 762 C 639.160 761.450, 637.810 761, 636.500 761 C 635.190 761, 633.840 760.550, 633.500 760 C 633.160 759.450, 632.121 758.997, 631.191 758.994 C 630.261 758.990, 628.211 758.315, 626.636 757.494 C 625.060 756.672, 623.142 756, 622.372 756 C 621.603 756, 620.079 755.550, 618.986 755 C 617.894 754.450, 616.106 753.550, 615.014 753 C 613.921 752.450, 612.148 752, 611.073 752 C 609.998 752, 608.840 751.550, 608.500 751 C 608.160 750.450, 607.078 750, 606.095 750 C 604.463 750, 600.178 748.314, 595.764 745.936 C 594.809 745.421, 593.121 745, 592.014 745 C 590.906 745, 590 744.550, 590 744 C 590 743.450, 589.094 743, 587.986 743 C 586.879 743, 585.191 742.588, 584.236 742.084 C 583.281 741.580, 580.700 740.425, 578.500 739.516 C 571.226 736.513, 569.517 735.775, 567.764 734.883 C 566.809 734.397, 565.340 734, 564.500 734 C 563.660 734, 562.191 733.587, 561.236 733.082 C 559.115 731.960, 545.330 725.922, 540.500 724 C 515.744 714.146, 453.367 682.868, 432.500 669.844 C 430.850 668.815, 428.712 667.701, 427.750 667.369 C 426.787 667.038, 426 666.453, 426 666.070 C 426 665.687, 424.425 664.755, 422.500 664 C 420.575 663.245, 419 662.261, 419 661.813 C 419 661.366, 418.520 661, 417.933 661 C 417.347 661, 415.392 659.875, 413.589 658.500 C 411.786 657.125, 409.791 656, 409.156 656 C 408.520 656, 408 655.626, 408 655.169 C 408 654.712, 406.765 653.699, 405.257 652.919 C 402.427 651.456, 379.890 636.158, 379 635.096 C 377.735 633.589, 365.896 625, 365.082 625 C 364.579 625, 364.017 624.662, 363.833 624.248 C 363.650 623.834, 360.803 621.247, 357.507 618.498 C 354.211 615.749, 351.022 613.050, 350.422 612.500 C 349.821 611.950, 346.483 609.025, 343.002 606 C 334.347 598.477, 318.556 582.646, 312.522 575.443 C 309.785 572.174, 307.310 569.275, 307.022 569 C 306.735 568.725, 304.708 566.250, 302.517 563.500 C 300.327 560.750, 298.189 558.350, 297.767 558.167 C 297.345 557.983, 297 557.389, 297 556.847 C 297 555.782, 291.838 547.991, 289.698 545.825 C 288.977 545.096, 288.085 543.825, 287.715 543 C 287.345 542.175, 285.935 539.700, 284.581 537.500 C 283.228 535.300, 281.037 531.475, 279.714 529 C 272.696 515.877, 271.112 512.442, 268.879 505.500 C 268.171 503.300, 267.234 501.072, 266.796 500.550 C 266.358 500.027, 266 498.592, 266 497.359 C 266 496.126, 265.598 494.869, 265.106 494.565 C 264.614 494.261, 263.980 492.322, 263.698 490.256 C 263.149 486.240, 261.246 478.781, 259.933 475.500 C 259.493 474.400, 258.879 466.525, 258.568 458 C 257.842 438.084, 259.825 415.778, 262.807 410.316 C 263.463 409.114, 264 407.003, 264 405.625 C 264 404.246, 264.450 402.840, 265 402.500 C 265.550 402.160, 266 400.810, 266 399.500 C 266 398.190, 266.450 396.840, 267 396.500 C 267.550 396.160, 268 394.810, 268 393.500 C 268 392.190, 268.450 390.840, 269 390.500 C 269.550 390.160, 270 389.094, 270 388.130 C 270 386.166, 282.375 361.378, 284.582 358.921 C 285.362 358.053, 286 356.985, 286 356.548 C 286 356.111, 288.025 352.916, 290.500 349.448 C 292.975 345.979, 295 342.697, 295 342.154 C 295 341.611, 295.338 341.017, 295.751 340.833 C 296.164 340.650, 300.636 335.325, 305.688 329 C 318.160 313.388, 346.095 286.151, 362.916 273.202 C 369.204 268.361, 369.801 267.895, 376.029 262.952 C 382.761 257.609, 396.807 248, 397.885 248 C 398.406 248, 398.983 247.628, 399.167 247.173 C 399.664 245.939, 421.694 231.924, 431.514 226.593 C 432.622 225.992, 434.872 224.558, 436.514 223.407 C 438.156 222.256, 440.962 220.684, 442.750 219.913 C 444.537 219.142, 446 218.172, 446 217.756 C 446 217.340, 446.863 217, 447.917 217 C 448.971 217, 449.983 216.662, 450.167 216.250 C 450.350 215.838, 452.075 214.648, 454 213.606 C 462.587 208.959, 474.995 202.454, 480.500 199.712 C 483.800 198.068, 488.750 195.582, 491.500 194.188 C 497.539 191.125, 497.086 191.344, 509.500 185.469 C 515 182.866, 520.513 180.346, 521.750 179.868 C 527.581 177.618, 528.846 177.069, 533.842 174.619 C 536.781 173.179, 539.818 172, 540.592 172 C 541.367 172, 542 171.550, 542 171 C 542 170.450, 542.906 170, 544.014 170 C 545.121 170, 546.809 169.588, 547.764 169.084 C 548.719 168.580, 551.300 167.396, 553.500 166.452 C 555.700 165.509, 559.272 163.896, 561.438 162.868 C 563.604 161.841, 565.972 161, 566.701 161 C 567.431 161, 568.809 160.603, 569.764 160.117 C 570.719 159.631, 572.625 158.777, 574 158.219 C 576.350 157.265, 581.295 155.210, 587 152.816 C 588.375 152.239, 590.281 151.369, 591.236 150.883 C 592.191 150.397, 593.852 150, 594.927 150 C 596.002 150, 597.160 149.550, 597.500 149 C 597.840 148.450, 598.922 148, 599.905 148 C 601.537 148, 605.822 146.314, 610.236 143.936 C 611.191 143.421, 612.852 143, 613.927 143 C 615.002 143, 616.160 142.550, 616.500 142 C 616.840 141.450, 618.190 141, 619.500 141 C 620.810 141, 622.160 140.550, 622.500 140 C 622.840 139.450, 623.998 139, 625.073 139 C 626.148 139, 627.809 138.596, 628.764 138.103 C 629.719 137.609, 632.525 136.438, 635 135.500 C 637.475 134.562, 640.281 133.391, 641.236 132.897 C 642.191 132.404, 644.077 132, 645.427 132 C 646.777 132, 648.160 131.550, 648.500 131 C 648.840 130.450, 650.190 130, 651.500 130 C 652.810 130, 654.128 129.602, 654.429 129.115 C 654.729 128.629, 656.219 128.014, 657.738 127.749 C 660.724 127.228, 672.410 123.308, 675.236 121.878 C 676.191 121.395, 678.077 121, 679.427 121 C 680.777 121, 682.160 120.550, 682.500 120 C 682.840 119.450, 684.223 119, 685.573 119 C 686.923 119, 688.809 118.595, 689.764 118.100 C 690.719 117.604, 694.200 116.423, 697.500 115.475 C 700.800 114.527, 704.281 113.357, 705.236 112.876 C 706.191 112.394, 708.077 112, 709.427 112 C 710.777 112, 712.160 111.550, 712.500 111 C 712.840 110.450, 714.415 110, 716 110 C 717.585 110, 719.160 109.550, 719.500 109 C 719.840 108.450, 721.329 107.984, 722.809 107.965 C 724.289 107.945, 726.625 107.286, 728 106.500 C 729.375 105.714, 731.711 105.055, 733.191 105.035 C 734.671 105.016, 736.160 104.550, 736.500 104 C 736.840 103.450, 738.666 103, 740.559 103 C 742.452 103, 744 102.597, 744 102.105 C 744 101.613, 745.688 100.974, 747.750 100.686 C 752.960 99.957, 757.144 99.001, 759.500 98 C 760.600 97.533, 762.625 96.937, 764 96.677 C 765.375 96.416, 767.850 95.745, 769.500 95.186 C 776.406 92.845, 779.789 92, 782.262 92 C 783.703 92, 785.160 91.550, 785.500 91 C 785.840 90.450, 787.865 90, 790 90 C 792.135 90, 794.131 89.598, 794.435 89.106 C 794.739 88.614, 796.678 87.980, 798.744 87.698 C 803.316 87.073, 810.872 85.084, 813.236 83.882 C 814.191 83.397, 816.464 83, 818.286 83 C 820.109 83, 822.028 82.596, 822.550 82.102 C 823.073 81.609, 825.300 80.963, 827.500 80.667 C 832.106 80.048, 837.777 78.842, 847 76.520 C 850.575 75.620, 855.075 74.656, 857 74.380 C 858.925 74.103, 861.400 73.482, 862.500 73 C 864.376 72.178, 866.673 71.745, 876.500 70.359 C 878.700 70.049, 880.927 69.391, 881.450 68.898 C 881.972 68.404, 883.775 68, 885.457 68 C 887.138 68, 890.085 67.501, 892.007 66.890 C 893.928 66.280, 897.750 65.362, 900.500 64.851 C 905.976 63.833, 913.128 62.522, 921.250 61.046 C 934.919 58.563, 938.041 57.970, 945.500 56.443 C 949.900 55.542, 955.525 54.600, 958 54.350 C 960.475 54.100, 963.400 53.491, 964.500 52.996 C 965.600 52.501, 968.750 51.874, 971.500 51.602 C 974.250 51.330, 978.975 50.670, 982 50.134 C 985.025 49.598, 991.083 48.649, 995.463 48.025 C 999.843 47.401, 1003.893 46.508, 1004.463 46.041 C 1005.033 45.573, 1008.200 44.940, 1011.500 44.634 C 1014.800 44.329, 1020.650 43.619, 1024.500 43.058 C 1038.126 41.071, 1046.589 39.959, 1054.032 39.178 C 1058.174 38.743, 1062.144 38.029, 1062.852 37.591 C 1063.561 37.153, 1067.372 36.589, 1071.321 36.338 C 1075.269 36.087, 1079.400 35.476, 1080.500 34.980 C 1081.600 34.484, 1085.425 33.847, 1089 33.564 C 1092.575 33.282, 1099.325 32.600, 1104 32.049 C 1108.675 31.497, 1116.550 30.617, 1121.500 30.093 C 1126.450 29.569, 1135.450 28.398, 1141.500 27.491 C 1147.550 26.584, 1156.546 25.618, 1161.491 25.344 C 1166.435 25.070, 1170.935 24.470, 1171.491 24.010 C 1172.046 23.551, 1177 23.064, 1182.500 22.929 C 1188 22.793, 1192.954 22.339, 1193.509 21.918 C 1194.065 21.498, 1198.565 20.947, 1203.509 20.693 C 1218.716 19.913, 1239.420 18.052, 1241 17.324 C 1242.622 16.577, 1261.956 15.219, 1282 14.445 C 1297.019 13.865, 1299 13.101, 1299 7.890 L 1299 4.118 1286.750 3.579 C 1268.974 2.798, 1099.596 1.737, 1098.930 2.403 M 885.500 178.113 C 879.450 178.524, 866.625 179.141, 857 179.485 C 847.375 179.829, 838.600 180.523, 837.500 181.028 C 836.400 181.532, 828.750 182.163, 820.500 182.429 C 812.250 182.695, 801 183.355, 795.500 183.895 C 790 184.436, 780.550 185.330, 774.500 185.883 C 755.722 187.600, 743.563 189.028, 742 189.701 C 741.175 190.056, 737.237 190.718, 733.250 191.173 C 729.263 191.628, 722.625 192.450, 718.500 193 C 714.375 193.550, 707.737 194.426, 703.750 194.947 C 686.149 197.248, 681.569 197.957, 680.084 198.613 C 679.213 198.998, 675.913 199.692, 672.750 200.156 C 669.587 200.620, 664.188 201.463, 660.750 202.029 C 657.313 202.595, 652.700 203.296, 650.500 203.586 C 648.300 203.876, 645.600 204.512, 644.500 205 C 643.400 205.488, 640.700 206.109, 638.500 206.380 C 632.265 207.149, 622.240 209.420, 621.414 210.250 C 621.003 210.662, 618.807 211, 616.533 211 C 614.260 211, 611.972 211.404, 611.450 211.898 C 610.927 212.391, 608.700 213.037, 606.500 213.333 C 600.692 214.114, 594.270 215.554, 588 217.483 C 584.975 218.414, 580.810 219.408, 578.744 219.693 C 576.678 219.978, 574.739 220.614, 574.435 221.106 C 574.131 221.598, 572.360 222, 570.500 222 C 568.640 222, 566.840 222.450, 566.500 223 C 566.160 223.550, 564.360 224, 562.500 224 C 560.640 224, 558.840 224.450, 558.500 225 C 558.160 225.550, 556.896 226.009, 555.691 226.021 C 554.486 226.033, 550.350 227.156, 546.500 228.517 C 542.650 229.878, 538.514 230.993, 537.309 230.996 C 536.104 230.998, 534.840 231.450, 534.500 232 C 534.160 232.550, 532.585 233, 531 233 C 529.415 233, 527.840 233.450, 527.500 234 C 527.160 234.550, 525.835 235, 524.555 235 C 523.276 235, 520.940 235.672, 519.364 236.494 C 517.789 237.315, 515.739 237.990, 514.809 237.994 C 513.879 237.997, 512.840 238.450, 512.500 239 C 512.160 239.550, 510.810 240, 509.500 240 C 508.190 240, 506.840 240.450, 506.500 241 C 506.160 241.550, 505.002 242, 503.927 242 C 502.852 242, 501.191 242.395, 500.236 242.877 C 499.281 243.360, 496.700 244.287, 494.500 244.938 C 489.551 246.403, 479.199 250.369, 475.764 252.117 C 474.809 252.603, 473.340 253, 472.500 253 C 471.660 253, 470.191 253.384, 469.236 253.853 C 465.726 255.577, 455.411 259.906, 447.750 262.871 C 446.512 263.349, 442.800 264.974, 439.500 266.480 C 433.181 269.364, 426.184 272.512, 422 274.354 C 420.625 274.959, 417.821 276.477, 415.770 277.727 C 413.718 278.977, 411.356 280, 410.520 280 C 409.684 280, 409 280.450, 409 281 C 409 281.550, 408.347 282, 407.550 282 C 406.752 282, 403.715 283.375, 400.800 285.055 C 397.885 286.735, 394.713 288.363, 393.750 288.672 C 392.788 288.981, 392 289.631, 392 290.117 C 392 290.602, 391.100 291, 390 291 C 388.900 291, 388 291.450, 388 292 C 388 292.550, 387.555 293, 387.010 293 C 386.466 293, 382.861 295.025, 379 297.500 C 375.139 299.975, 371.700 302, 371.359 302 C 371.018 302, 368.547 303.575, 365.867 305.500 C 363.188 307.425, 360.546 309, 359.998 309 C 359.449 309, 359 309.450, 359 310 C 359 310.550, 358.325 311, 357.500 311 C 356.675 311, 356 311.450, 356 312 C 356 312.550, 355.433 313, 354.740 313 C 354.047 313, 352.359 314.025, 350.990 315.278 C 349.620 316.532, 346.925 318.649, 345 319.984 C 332.579 328.596, 307.320 352.504, 298.617 363.885 C 290.567 374.413, 289.081 376.511, 289.041 377.406 C 289.018 377.904, 287.972 379.704, 286.716 381.406 C 284.618 384.249, 279.954 393.403, 276.224 402 C 275.389 403.925, 274.322 406.281, 273.853 407.236 C 273.384 408.191, 273 410.014, 273 411.286 C 273 412.559, 272.596 414.028, 272.102 414.550 C 270.576 416.165, 269.808 423.800, 269.349 441.904 C 269.061 453.263, 269.272 459.672, 269.954 460.354 C 270.529 460.929, 271 463.116, 271 465.214 C 271 467.311, 271.406 469.809, 271.903 470.764 C 272.399 471.719, 273.388 474.525, 274.100 477 C 274.813 479.475, 276.162 483.075, 277.099 485 C 278.036 486.925, 279.597 490.300, 280.567 492.500 C 283.071 498.176, 298.040 520.469, 303.720 526.979 C 313.143 537.781, 327.863 551.679, 337.389 558.767 C 344.907 564.362, 346.583 565.666, 349.577 568.250 C 351.330 569.763, 353.267 571, 353.882 571 C 354.497 571, 355 571.450, 355 572 C 355 572.550, 355.637 573, 356.417 573 C 357.196 573, 357.983 573.337, 358.167 573.750 C 358.649 574.835, 369.781 582, 370.985 582 C 371.543 582, 372 582.450, 372 583 C 372 583.550, 372.441 584, 372.981 584 C 373.520 584, 376.423 585.575, 379.433 587.500 C 382.442 589.425, 385.338 591, 385.869 591 C 386.399 591, 386.983 591.338, 387.167 591.750 C 387.466 592.424, 394.919 596.638, 400.742 599.427 C 401.975 600.017, 402.988 600.837, 402.992 601.250 C 402.996 601.663, 403.563 601.994, 404.250 601.988 C 404.938 601.981, 410.675 604.506, 417 607.598 C 435.579 616.683, 438.462 618, 439.764 618 C 440.444 618, 441 618.450, 441 619 C 441 619.550, 441.681 620, 442.514 620 C 443.346 620, 444.921 620.450, 446.014 621 C 447.106 621.550, 448.894 622.450, 449.986 623 C 451.079 623.550, 452.417 624, 452.959 624 C 453.879 624, 463.330 628.028, 467.236 630.086 C 468.191 630.589, 469.660 631, 470.500 631 C 471.340 631, 472.921 631.450, 474.014 632 C 475.106 632.550, 476.894 633.450, 477.986 634 C 479.079 634.550, 480.473 635, 481.085 635 C 481.697 635, 483.841 635.721, 485.849 636.602 C 491.476 639.071, 493.147 639.676, 498 641 C 503.093 642.390, 504.918 643.038, 510.284 645.361 C 512.365 646.263, 514.926 647, 515.975 647 C 517.024 647, 518.160 647.450, 518.500 648 C 518.840 648.550, 520.415 649, 522 649 C 523.585 649, 525.160 649.450, 525.500 650 C 525.840 650.550, 527.415 651, 529 651 C 530.585 651, 532.160 651.450, 532.500 652 C 532.840 652.550, 534.165 653, 535.445 653 C 536.724 653, 539.060 653.672, 540.636 654.494 C 542.211 655.315, 544.486 655.990, 545.691 655.994 C 546.896 655.997, 548.160 656.450, 548.500 657 C 548.840 657.550, 550.640 658, 552.500 658 C 554.360 658, 556.160 658.450, 556.500 659 C 556.840 659.550, 558.415 660, 560 660 C 561.585 660, 563.131 660.402, 563.435 660.894 C 563.739 661.386, 565.678 662.002, 567.744 662.263 C 569.810 662.524, 573.975 663.483, 577 664.395 C 580.025 665.306, 584.198 666.326, 586.274 666.661 C 588.350 666.996, 590.289 667.659, 590.583 668.135 C 590.877 668.611, 592.801 669, 594.859 669 C 596.917 669, 599.028 669.404, 599.550 669.898 C 600.073 670.391, 602.300 671.043, 604.500 671.347 C 613.049 672.526, 618.561 673.611, 619.757 674.350 C 620.444 674.774, 623.367 675.567, 626.253 676.112 C 629.139 676.657, 633.750 677.547, 636.500 678.091 C 646.373 680.041, 652.575 681.103, 657 681.599 C 659.475 681.877, 662.400 682.476, 663.500 682.931 C 667.018 684.386, 687.772 687.719, 699 688.633 C 702.575 688.924, 705.927 689.575, 706.450 690.081 C 706.972 690.586, 710.433 691, 714.141 691 C 717.849 691, 721.160 691.450, 721.500 692 C 721.840 692.550, 725.046 693, 728.625 693 C 732.203 693, 735.992 693.461, 737.044 694.024 C 739.591 695.387, 767.497 698.403, 788.500 699.585 C 793.450 699.864, 798.400 700.513, 799.500 701.027 C 800.600 701.541, 807.125 702.155, 814 702.391 C 820.875 702.627, 837.300 703.640, 850.500 704.642 C 885.065 707.266, 1016.160 707.273, 1050.500 704.653 C 1063.150 703.688, 1079.575 702.491, 1087 701.993 C 1094.425 701.496, 1105 700.626, 1110.500 700.060 C 1116 699.495, 1125.450 698.597, 1131.500 698.066 C 1150.205 696.423, 1160.355 695.173, 1163.993 694.064 C 1165.915 693.479, 1169.826 693, 1172.684 693 C 1175.543 693, 1178.160 692.550, 1178.500 692 C 1178.840 691.450, 1182.151 691, 1185.859 691 C 1189.567 691, 1193.028 690.585, 1193.550 690.078 C 1194.073 689.571, 1197.650 688.929, 1201.500 688.652 C 1211.864 687.905, 1235.400 683.947, 1236.588 682.750 C 1236.998 682.337, 1239.643 682, 1242.467 682 C 1245.290 682, 1248.028 681.594, 1248.550 681.097 C 1249.072 680.600, 1251.525 679.946, 1254 679.644 C 1261.255 678.758, 1269.037 677.304, 1276 675.535 C 1279.575 674.626, 1284.075 673.656, 1286 673.380 C 1287.925 673.103, 1290.400 672.482, 1291.500 672 C 1292.600 671.518, 1295.075 670.896, 1297 670.618 C 1304.777 669.492, 1325.164 664.444, 1328.236 662.882 C 1329.191 662.397, 1331.302 662, 1332.927 662 C 1334.552 662, 1336.160 661.550, 1336.500 661 C 1336.840 660.450, 1338.640 660, 1340.500 660 C 1342.360 660, 1344.160 659.550, 1344.500 659 C 1344.840 658.450, 1346.019 658, 1347.121 658 C 1349.022 658, 1357.184 655.743, 1361.500 654.024 C 1362.600 653.586, 1365.525 652.666, 1368 651.979 C 1375.827 649.806, 1379.440 648.744, 1381.500 648.011 C 1387.050 646.036, 1390.958 644.733, 1395.500 643.344 C 1398.250 642.503, 1401.281 641.407, 1402.236 640.908 C 1403.191 640.408, 1404.789 640, 1405.786 640 C 1406.784 640, 1408.028 639.642, 1408.550 639.204 C 1409.072 638.766, 1411.300 637.815, 1413.500 637.089 C 1415.700 636.363, 1418.850 635.199, 1420.500 634.502 C 1422.150 633.805, 1425.075 632.686, 1427 632.016 C 1431.480 630.457, 1435.691 628.768, 1445 624.799 C 1446.375 624.212, 1448.513 623.343, 1449.750 622.866 C 1454.637 620.985, 1456.729 620.103, 1462.500 617.495 C 1465.800 616.003, 1470.525 613.886, 1473 612.791 C 1481.592 608.990, 1482.520 608.533, 1486.230 606.273 C 1488.282 605.023, 1490.644 604, 1491.480 604 C 1492.316 604, 1493 603.550, 1493 603 C 1493 602.450, 1493.900 602, 1495 602 C 1496.100 602, 1497 601.550, 1497 601 C 1497 600.450, 1497.752 600, 1498.671 600 C 1499.590 600, 1501.053 599.381, 1501.921 598.625 C 1502.790 597.869, 1506.425 595.732, 1510 593.875 C 1513.575 592.019, 1516.650 590.163, 1516.833 589.750 C 1517.017 589.337, 1517.649 589, 1518.239 589 C 1518.829 589, 1520.704 587.978, 1522.406 586.730 C 1524.108 585.481, 1526.850 583.794, 1528.500 582.981 C 1530.150 582.168, 1531.725 581.245, 1532 580.929 C 1532.275 580.614, 1535.875 578.191, 1540 575.545 C 1544.125 572.900, 1548.850 569.663, 1550.500 568.352 C 1552.150 567.042, 1553.950 565.617, 1554.500 565.186 C 1555.050 564.754, 1557.133 563.294, 1559.129 561.941 C 1562.708 559.514, 1568.881 554.293, 1579.750 544.500 C 1593.299 532.293, 1613.192 505.909, 1620.391 490.596 C 1624.563 481.723, 1628.007 472.005, 1629.284 465.500 C 1630.725 458.166, 1631.328 424.928, 1630.045 423.645 C 1629.470 423.070, 1629 421.224, 1629 419.542 C 1629 413.355, 1620.024 391.892, 1611.862 378.563 C 1601.222 361.188, 1578.047 337.175, 1555.730 320.402 C 1547.960 314.563, 1540.925 309.525, 1540.095 309.206 C 1539.265 308.888, 1537.628 307.794, 1536.457 306.776 C 1533.988 304.629, 1528.286 301.210, 1525.750 300.356 C 1524.788 300.032, 1524 299.369, 1524 298.883 C 1524 298.398, 1523.540 298, 1522.979 298 C 1522.417 298, 1520.279 296.903, 1518.229 295.563 C 1511.729 291.314, 1476.728 273.322, 1468 269.744 C 1466.625 269.180, 1463.414 267.657, 1460.865 266.359 C 1458.315 265.062, 1455.503 264, 1454.615 264 C 1453.727 264, 1453 263.550, 1453 263 C 1453 262.450, 1451.875 262, 1450.500 262 C 1449.125 262, 1448 261.550, 1448 261 C 1448 260.450, 1447.337 260, 1446.527 260 C 1445.221 260, 1436.471 256.393, 1431.764 253.914 C 1430.809 253.411, 1429.148 253, 1428.073 253 C 1426.998 253, 1425.840 252.550, 1425.500 252 C 1425.160 251.450, 1424.002 251, 1422.927 251 C 1421.852 251, 1420.191 250.596, 1419.236 250.103 C 1418.281 249.609, 1415.475 248.438, 1413 247.500 C 1410.525 246.562, 1407.719 245.391, 1406.764 244.897 C 1405.809 244.404, 1404.148 244, 1403.073 244 C 1401.998 244, 1400.840 243.550, 1400.500 243 C 1400.160 242.450, 1398.810 242, 1397.500 242 C 1396.190 242, 1394.840 241.550, 1394.500 241 C 1394.160 240.450, 1392.835 240, 1391.555 240 C 1390.276 240, 1387.940 239.328, 1386.364 238.506 C 1384.789 237.685, 1382.739 237.010, 1381.809 237.006 C 1380.879 237.003, 1379.840 236.550, 1379.500 236 C 1379.160 235.450, 1377.585 235, 1376 235 C 1374.415 235, 1372.840 234.550, 1372.500 234 C 1372.160 233.450, 1370.585 233, 1369 233 C 1367.415 233, 1365.840 232.550, 1365.500 232 C 1365.160 231.450, 1363.777 231, 1362.427 231 C 1361.077 231, 1359.191 230.613, 1358.236 230.141 C 1355.133 228.606, 1346.285 226, 1344.175 226 C 1343.044 226, 1341.840 225.550, 1341.500 225 C 1341.160 224.450, 1339.585 224, 1338 224 C 1336.415 224, 1334.869 223.598, 1334.565 223.106 C 1334.261 222.614, 1332.322 221.975, 1330.256 221.687 C 1326.415 221.151, 1323.052 220.353, 1312.500 217.471 C 1304.861 215.384, 1298.570 214.015, 1293.500 213.333 C 1291.300 213.037, 1289.072 212.391, 1288.550 211.898 C 1288.027 211.404, 1285.740 211, 1283.467 211 C 1281.193 211, 1279.003 210.670, 1278.599 210.266 C 1277.164 208.830, 1246.153 202.768, 1227.250 200.227 C 1224.088 199.802, 1221.017 199.150, 1220.426 198.777 C 1219.386 198.121, 1211.499 196.853, 1196 194.852 C 1191.875 194.320, 1185.575 193.490, 1182 193.008 C 1178.425 192.527, 1171.900 191.707, 1167.500 191.187 C 1163.100 190.667, 1158.825 189.975, 1158 189.648 C 1155.300 188.581, 1124.258 185.523, 1104.500 184.378 C 1099 184.059, 1094.073 183.394, 1093.550 182.899 C 1093.028 182.405, 1086.135 182, 1078.234 182 C 1070.333 182, 1063.111 181.602, 1062.184 181.116 C 1061.258 180.630, 1052.625 179.931, 1043 179.564 C 1033.375 179.197, 1020.100 178.510, 1013.500 178.038 C 999.044 177.003, 900.996 177.061, 885.500 178.113 M 892.081 179.988 C 875.351 180.434, 859.826 181.097, 857.581 181.462 C 855.337 181.827, 844.500 182.544, 833.500 183.056 C 822.500 183.568, 809.450 184.416, 804.500 184.939 C 799.550 185.463, 792.575 186.152, 789 186.472 C 785.425 186.792, 778.450 187.495, 773.500 188.033 C 768.550 188.572, 760 189.499, 754.500 190.094 C 749 190.689, 741.575 191.568, 738 192.047 C 734.425 192.526, 729.475 193.177, 727 193.494 C 724.525 193.811, 720.250 194.481, 717.500 194.983 C 714.750 195.484, 708.450 196.401, 703.500 197.019 C 693.654 198.249, 679.340 200.456, 671.500 201.953 C 668.750 202.479, 663.800 203.382, 660.500 203.960 C 654.530 205.007, 626.675 210.552, 620 212.023 C 618.075 212.447, 614.925 213.090, 613 213.450 C 611.075 213.811, 607.925 214.512, 606 215.010 C 604.075 215.507, 593.950 217.989, 583.500 220.525 C 573.050 223.061, 563.375 225.509, 562 225.966 C 560.625 226.422, 555 228.018, 549.500 229.511 C 544 231.005, 538.600 232.575, 537.500 233 C 536.400 233.424, 533.475 234.337, 531 235.028 C 525.514 236.560, 505.266 242.950, 502.500 244.023 C 501.400 244.449, 499.150 245.256, 497.500 245.815 C 492.046 247.665, 479.535 252.146, 477.500 252.979 C 476.400 253.430, 473.925 254.346, 472 255.015 C 470.075 255.684, 466.125 257.304, 463.223 258.616 C 460.320 259.927, 457.502 261, 456.959 261 C 456.417 261, 455.191 261.413, 454.236 261.918 C 451.575 263.326, 443.088 267, 442.499 267 C 439.830 267, 392.837 290.844, 382.603 297.391 C 379.500 299.376, 376.724 301, 376.433 301 C 375.473 301, 352.612 316.174, 346.500 320.868 C 321.632 339.967, 305.531 356.243, 292.518 375.435 C 280.689 392.882, 274.661 407.652, 271.472 427 C 269.203 440.767, 270.023 455.391, 273.884 470 C 282.345 502.019, 307.674 534.639, 347 564.162 C 354.209 569.574, 375.179 583.290, 383.500 588.036 C 397.752 596.164, 421.511 608.290, 433 613.299 C 434.925 614.138, 439.425 616.135, 443 617.737 C 446.575 619.338, 454.900 622.803, 461.500 625.436 C 468.100 628.069, 474.400 630.583, 475.500 631.023 C 483.948 634.399, 496.818 639, 497.813 639 C 498.481 639, 499.809 639.411, 500.764 639.914 C 501.719 640.416, 507.450 642.381, 513.500 644.280 C 519.550 646.179, 526.975 648.515, 530 649.471 C 533.025 650.426, 536.850 651.580, 538.500 652.035 C 540.150 652.489, 543.975 653.595, 547 654.492 C 553.476 656.412, 566.035 659.811, 571 660.988 C 572.925 661.444, 579 662.994, 584.500 664.434 C 590 665.873, 596.750 667.534, 599.500 668.126 C 602.250 668.718, 606.075 669.561, 608 670 C 609.925 670.439, 613.750 671.277, 616.500 671.862 C 619.250 672.448, 624.650 673.637, 628.500 674.506 C 632.350 675.376, 637.975 676.535, 641 677.082 C 644.025 677.630, 648.525 678.458, 651 678.922 C 653.475 679.387, 660.900 680.711, 667.500 681.866 C 674.100 683.021, 681.750 684.395, 684.500 684.920 C 687.250 685.445, 693.325 686.363, 698 686.961 C 702.675 687.559, 709.538 688.487, 713.250 689.024 C 728.627 691.248, 733.847 692.021, 740.500 693.058 C 744.350 693.659, 752 694.555, 757.500 695.050 C 763 695.544, 772 696.426, 777.500 697.010 C 783 697.593, 790.200 698.282, 793.500 698.542 C 796.800 698.801, 803.325 699.452, 808 699.988 C 812.675 700.523, 822.125 701.197, 829 701.484 C 835.875 701.771, 848.250 702.421, 856.500 702.929 C 864.750 703.436, 889.162 704.416, 910.750 705.105 C 950.303 706.369, 1000.964 705.542, 1044.500 702.920 C 1053.300 702.390, 1065.675 701.729, 1072 701.451 C 1078.325 701.173, 1087.550 700.515, 1092.500 699.988 C 1097.450 699.461, 1104.425 698.778, 1108 698.470 C 1111.575 698.161, 1118.775 697.464, 1124 696.921 C 1129.225 696.378, 1138 695.532, 1143.500 695.043 C 1149 694.553, 1155.975 693.717, 1159 693.185 C 1162.025 692.653, 1168.325 691.701, 1173 691.069 C 1177.675 690.438, 1183.975 689.516, 1187 689.021 C 1190.025 688.525, 1196.550 687.611, 1201.500 686.991 C 1209.776 685.953, 1231.081 682.430, 1243.750 680.005 C 1246.638 679.452, 1251.588 678.507, 1254.750 677.904 C 1265.280 675.897, 1269.426 675.035, 1279 672.866 C 1284.225 671.682, 1290.412 670.328, 1292.750 669.857 C 1303.232 667.744, 1310.997 665.889, 1323.500 662.512 C 1329 661.027, 1335.075 659.449, 1337 659.005 C 1343.351 657.542, 1356.408 653.926, 1362 652.082 C 1365.025 651.084, 1369.525 649.688, 1372 648.979 C 1377.031 647.538, 1413.201 635.400, 1422.500 632.032 C 1429.653 629.441, 1430.788 628.978, 1438.277 625.603 C 1441.455 624.172, 1444.498 623, 1445.041 623 C 1445.583 623, 1446.809 622.603, 1447.764 622.117 C 1448.719 621.631, 1450.625 620.746, 1452 620.150 C 1469.204 612.699, 1472.750 611.079, 1487 604.164 C 1493.325 601.095, 1499.625 597.848, 1501 596.949 C 1502.375 596.051, 1505.975 594.014, 1509 592.424 C 1512.025 590.834, 1517.542 587.613, 1521.260 585.266 C 1524.978 582.920, 1528.276 581, 1528.589 581 C 1529.479 581, 1554.712 563.266, 1562.500 557.168 C 1570.287 551.070, 1586.653 534.971, 1595.200 525 C 1607.644 510.485, 1618.925 491.287, 1623.996 476 C 1628.981 460.971, 1630.729 445.991, 1629.105 432.210 C 1628.411 426.319, 1627.441 420.150, 1626.949 418.500 C 1624.772 411.193, 1621.720 402.219, 1620.319 399 C 1617.067 391.528, 1616.458 390.336, 1613.280 385.231 C 1611.476 382.332, 1610 379.693, 1610 379.365 C 1610 378.786, 1604.041 370.375, 1601.002 366.666 C 1578.292 338.940, 1558.772 322.240, 1524.500 301.217 C 1511.728 293.382, 1479.281 276.360, 1468 271.577 C 1465.525 270.528, 1460.800 268.440, 1457.500 266.937 C 1452.519 264.670, 1444.823 261.502, 1428.500 254.999 C 1427.400 254.560, 1424.925 253.661, 1423 253 C 1421.075 252.339, 1418.600 251.430, 1417.500 250.979 C 1414.097 249.586, 1401.709 245.228, 1397.500 243.944 C 1395.300 243.272, 1392.600 242.364, 1391.500 241.925 C 1386.904 240.092, 1357.340 231.114, 1345.500 227.955 C 1341.100 226.781, 1336.150 225.442, 1334.500 224.978 C 1329.837 223.668, 1328.488 223.332, 1312.500 219.502 C 1304.250 217.526, 1295.925 215.513, 1294 215.029 C 1292.075 214.545, 1287.800 213.614, 1284.500 212.960 C 1281.200 212.306, 1277.150 211.396, 1275.500 210.938 C 1273.850 210.480, 1269.800 209.584, 1266.500 208.948 C 1263.200 208.311, 1258.475 207.389, 1256 206.900 C 1251.837 206.076, 1247.575 205.314, 1234.500 203.057 C 1231.750 202.583, 1225.450 201.467, 1220.500 200.578 C 1215.550 199.690, 1207.900 198.471, 1203.500 197.870 C 1199.100 197.269, 1193.025 196.407, 1190 195.953 C 1184.625 195.148, 1176.606 194.030, 1162.500 192.122 C 1158.650 191.602, 1151 190.689, 1145.500 190.094 C 1140 189.499, 1131.450 188.571, 1126.500 188.032 C 1121.550 187.493, 1114.350 186.782, 1110.500 186.452 C 1106.650 186.122, 1099.225 185.418, 1094 184.887 C 1088.775 184.356, 1076.400 183.511, 1066.500 183.009 C 1056.600 182.508, 1041.750 181.653, 1033.500 181.110 C 1012.080 179.701, 927.913 179.033, 892.081 179.988" stroke="none" fill="#ededba" fill-rule="evenodd"/><path d="M 1087.500 5.120 C 1039.021 6.227, 996.080 8.255, 974.500 10.456 C 971.200 10.793, 961.975 11.529, 954 12.092 C 898.932 15.981, 870.562 18.377, 868 19.355 C 866.633 19.877, 860.971 20.535, 836 23.076 C 831.325 23.552, 823.900 24.379, 819.500 24.915 C 815.100 25.451, 807.675 26.333, 803 26.875 C 798.325 27.417, 789.775 28.582, 784 29.464 C 773.886 31.008, 765.829 32.158, 752 34.031 C 735.959 36.203, 726.961 37.577, 716 39.528 C 711.875 40.262, 706.925 41.142, 705 41.483 C 703.075 41.824, 699.025 42.491, 696 42.965 C 690.025 43.902, 679.423 45.657, 671.500 47.019 C 668.750 47.492, 663.125 48.583, 659 49.442 C 654.875 50.302, 648.800 51.493, 645.500 52.088 C 642.200 52.684, 637.250 53.600, 634.500 54.125 C 631.750 54.649, 627.250 55.467, 624.500 55.943 C 621.750 56.418, 616.350 57.566, 612.500 58.494 C 601.322 61.188, 597.819 61.973, 592.500 62.976 C 589.750 63.494, 585.363 64.387, 582.750 64.959 C 580.138 65.532, 576.088 66.393, 573.750 66.874 C 571.413 67.355, 566.800 68.500, 563.500 69.418 C 557.933 70.968, 555.105 71.650, 544.500 74.003 C 535.435 76.014, 532.035 76.858, 522.500 79.463 C 517 80.965, 510.700 82.621, 508.500 83.143 C 500.466 85.048, 497.381 85.841, 491.500 87.511 C 488.200 88.448, 484.150 89.591, 482.500 90.051 C 480.850 90.511, 477.925 91.337, 476 91.887 C 471.892 93.061, 466.309 94.635, 461.750 95.906 C 451.265 98.827, 443.281 101.298, 441.764 102.092 C 440.809 102.591, 439.115 103, 438 103 C 436.885 103, 435.191 103.402, 434.236 103.894 C 433.281 104.385, 428.675 106.001, 424 107.484 C 419.325 108.966, 414.600 110.538, 413.500 110.976 C 412.400 111.414, 409.475 112.317, 407 112.983 C 404.525 113.650, 401.719 114.601, 400.764 115.097 C 399.809 115.594, 398.361 116, 397.547 116 C 396.187 116, 390.979 117.991, 386.764 120.122 C 385.809 120.605, 384.148 121, 383.073 121 C 381.998 121, 380.840 121.450, 380.500 122 C 380.160 122.550, 379.002 123, 377.927 123 C 376.852 123, 375.191 123.422, 374.236 123.938 C 373.281 124.454, 369.125 126.057, 365 127.500 C 360.875 128.943, 356.719 130.546, 355.764 131.062 C 354.809 131.578, 353.340 132, 352.500 132 C 351.660 132, 350.191 132.397, 349.236 132.883 C 347.136 133.952, 344.645 134.974, 335.500 138.520 C 331.650 140.012, 327.375 141.691, 326 142.251 C 324.625 142.810, 322.600 143.612, 321.500 144.032 C 320.400 144.452, 317.700 145.547, 315.500 146.466 C 313.300 147.384, 310.600 148.510, 309.500 148.968 C 308.400 149.426, 305.367 150.746, 302.761 151.900 C 300.154 153.055, 297.825 154, 297.584 154 C 297.343 154, 293.736 155.575, 289.569 157.500 C 285.401 159.425, 281.658 161, 281.251 161 C 280.205 161, 262.073 169.758, 238.561 181.621 C 209.904 196.079, 207.756 197.235, 190.721 207.371 C 186.443 209.917, 182.672 212, 182.341 212 C 182.010 212, 179.547 213.575, 176.867 215.500 C 174.188 217.425, 171.722 219, 171.387 219 C 171.053 219, 167.882 221.025, 164.341 223.500 C 160.801 225.975, 157.476 228, 156.952 228 C 156.428 228, 156 228.450, 156 229 C 156 229.550, 155.438 230.013, 154.750 230.029 C 154.063 230.046, 149.396 233.083, 144.381 236.779 C 139.365 240.476, 131.672 246.102, 127.285 249.282 C 122.898 252.462, 118.452 255.845, 117.404 256.800 C 116.357 257.755, 111.450 261.842, 106.500 265.883 C 90.916 278.603, 60.926 308.949, 54.006 319 C 52.681 320.925, 51.326 322.725, 50.995 323 C 50.665 323.275, 49.071 325.300, 47.453 327.500 C 45.835 329.700, 44.251 331.725, 43.934 332 C 43.135 332.691, 34 346.956, 34 347.512 C 34 347.759, 32.510 350.332, 30.690 353.231 C 26.120 360.504, 16 381.701, 16 383.998 C 16 385.034, 15.550 386.160, 15 386.500 C 14.450 386.840, 14 387.998, 14 389.073 C 14 390.148, 13.605 391.809, 13.123 392.764 C 11.190 396.590, 9.174 403.935, 6.885 415.500 C 5.578 422.100, 3.625 442.193, 3.677 448.500 C 3.767 459.408, 6.123 478.786, 8.783 490.500 C 9.883 495.342, 13.889 507.831, 15.115 510.236 C 15.602 511.191, 16 512.462, 16 513.059 C 16 514.747, 26.919 536.883, 30.655 542.769 C 32.495 545.668, 34 548.303, 34 548.626 C 34 550.525, 54.081 577.624, 62.435 587 C 67.821 593.045, 94.857 620.036, 98.015 622.521 C 99.398 623.609, 104.798 628.105, 110.015 632.511 C 122.240 642.835, 146.365 661, 147.851 661 C 148.483 661, 149 661.394, 149 661.875 C 149 662.356, 150.238 663.384, 151.750 664.158 C 153.263 664.932, 159.766 669.038, 166.203 673.282 C 172.639 677.527, 178.143 681, 178.433 681 C 178.724 681, 181.366 682.538, 184.306 684.419 C 189.407 687.682, 191.792 689.082, 202 694.806 C 204.475 696.194, 208.075 698.223, 210 699.315 C 224.044 707.283, 261.185 725.842, 274 731.295 C 275.925 732.114, 280.200 733.997, 283.500 735.478 C 286.800 736.960, 291.075 738.863, 293 739.706 C 294.925 740.549, 298.975 742.347, 302 743.702 C 305.025 745.057, 308.625 746.630, 310 747.199 C 311.375 747.768, 313.281 748.631, 314.236 749.117 C 315.191 749.603, 316.789 750, 317.786 750 C 318.784 750, 320.027 750.373, 320.550 750.829 C 321.072 751.285, 325.775 753.360, 331 755.439 C 344.857 760.953, 345.336 761.150, 347.236 762.117 C 348.191 762.603, 349.789 763, 350.786 763 C 351.784 763, 353.027 763.387, 353.550 763.860 C 354.072 764.333, 356.975 765.549, 360 766.562 C 363.025 767.575, 365.928 768.763, 366.450 769.202 C 366.973 769.641, 368.216 770, 369.214 770 C 370.211 770, 371.809 770.422, 372.764 770.938 C 374.728 771.999, 386.465 776.223, 392.500 778.041 C 394.700 778.703, 397.281 779.640, 398.236 780.123 C 399.191 780.605, 400.852 781, 401.927 781 C 403.002 781, 404.128 781.398, 404.429 781.885 C 404.729 782.371, 406.219 782.986, 407.738 783.251 C 410.724 783.772, 422.410 787.692, 425.236 789.122 C 426.191 789.605, 427.885 790, 429 790 C 430.115 790, 431.809 790.410, 432.764 790.911 C 433.719 791.412, 438.550 793.010, 443.500 794.462 C 448.450 795.914, 453.534 797.529, 454.797 798.051 C 456.060 798.573, 457.979 799, 459.061 799 C 460.142 799, 461.809 799.406, 462.764 799.903 C 463.719 800.399, 466.525 801.352, 469 802.020 C 471.475 802.688, 475.525 803.826, 478 804.548 C 482.767 805.940, 487.882 807.327, 501.500 810.920 C 503.700 811.500, 507.975 812.683, 511 813.547 C 514.025 814.412, 518.300 815.573, 520.500 816.128 C 522.700 816.682, 525.882 817.555, 527.571 818.068 C 529.260 818.580, 531.478 819, 532.500 819 C 533.522 819, 535.740 819.433, 537.429 819.962 C 540.379 820.885, 553.144 824.194, 561.500 826.202 C 563.700 826.730, 567.300 827.397, 569.500 827.684 C 571.700 827.970, 573.928 828.609, 574.450 829.102 C 574.973 829.596, 576.741 830, 578.379 830 C 580.017 830, 582.740 830.421, 584.429 830.935 C 586.118 831.449, 591.100 832.632, 595.500 833.563 C 599.900 834.494, 604.400 835.614, 605.500 836.051 C 606.600 836.489, 609.525 837.140, 612 837.498 C 614.475 837.857, 618.525 838.549, 621 839.036 C 623.475 839.523, 627.975 840.379, 631 840.937 C 634.025 841.496, 639.650 842.665, 643.500 843.536 C 647.350 844.407, 652.862 845.542, 655.750 846.059 C 668.752 848.389, 679.149 850.155, 690.146 851.902 C 693.252 852.396, 696.627 853.062, 697.646 853.383 C 699.766 854.051, 709.270 855.657, 719.500 857.075 C 723.350 857.609, 729.538 858.486, 733.250 859.023 C 736.962 859.560, 743.038 860.413, 746.750 860.918 C 750.462 861.423, 757.550 862.568, 762.500 863.462 C 767.450 864.357, 775.550 865.544, 780.500 866.100 C 785.450 866.656, 792.875 867.548, 797 868.083 C 806.023 869.251, 816.213 870.475, 829 871.928 C 834.225 872.521, 839.400 873.256, 840.500 873.561 C 841.600 873.866, 847.225 874.560, 853 875.103 C 858.775 875.647, 868 876.534, 873.500 877.074 C 879 877.614, 888.675 878.463, 895 878.961 C 917.068 880.695, 931.522 881.987, 934.501 882.490 C 948.441 884.845, 1015.805 888.310, 1078.997 889.923 C 1105.060 890.589, 1120.619 891.358, 1120.830 891.991 C 1121.249 893.248, 1229.678 893.399, 1230.167 892.144 C 1230.350 891.672, 1250.750 890.747, 1275.500 890.087 C 1313.447 889.076, 1334.818 887.912, 1330.500 887.092 C 1329.550 886.911, 1318.960 886.149, 1287.500 883.995 C 1279.800 883.468, 1268.100 882.569, 1261.500 881.998 C 1254.900 881.428, 1244.100 880.531, 1237.500 880.005 C 1230.900 879.480, 1218.525 878.338, 1210 877.468 C 1201.475 876.599, 1190 875.465, 1184.500 874.950 C 1179 874.434, 1170.675 873.563, 1166 873.014 C 1161.325 872.465, 1153.176 871.586, 1147.890 871.062 C 1142.605 870.538, 1137.205 869.883, 1135.890 869.607 C 1134.576 869.332, 1130.575 868.857, 1127 868.553 C 1123.425 868.248, 1115.550 867.317, 1109.500 866.483 C 1103.450 865.649, 1094.900 864.495, 1090.500 863.919 C 1086.100 863.343, 1079.575 862.480, 1076 862 C 1072.425 861.520, 1065.900 860.663, 1061.500 860.094 C 1057.100 859.526, 1049 858.340, 1043.500 857.460 C 1038 856.579, 1030.800 855.454, 1027.500 854.960 C 1024.200 854.466, 1018.462 853.598, 1014.750 853.031 C 1011.038 852.464, 1005.188 851.585, 1001.750 851.077 C 998.313 850.569, 994.150 849.907, 992.500 849.604 C 990.850 849.301, 985.450 848.353, 980.500 847.497 C 975.550 846.641, 969.250 845.518, 966.500 845.002 C 963.750 844.486, 958.350 843.585, 954.500 843 C 947.253 841.899, 944.660 841.414, 927 837.856 C 921.225 836.692, 914.475 835.369, 912 834.914 C 894.782 831.753, 886.682 830.115, 870.500 826.518 C 856.968 823.510, 849.750 821.962, 840.750 820.139 C 836.171 819.211, 820.705 815.525, 815 814.002 C 810.486 812.797, 771.588 803.077, 767 802.009 C 765.075 801.560, 760.800 800.451, 757.500 799.545 C 754.200 798.638, 748.125 796.979, 744 795.858 C 739.875 794.738, 735.038 793.411, 733.250 792.910 C 731.462 792.410, 728.538 791.592, 726.750 791.093 C 724.962 790.594, 719.675 788.987, 715 787.522 C 710.325 786.056, 704.025 784.209, 701 783.418 C 695.020 781.853, 673.732 775.286, 670.500 774.009 C 669.400 773.574, 660.175 770.500, 650 767.176 C 630.126 760.686, 614.723 755.408, 611.500 753.984 C 610.400 753.498, 607.283 752.382, 604.574 751.503 C 601.865 750.624, 597.365 748.979, 594.574 747.849 C 591.783 746.719, 588.600 745.439, 587.500 745.006 C 580.821 742.377, 566.189 736.663, 564.500 736.024 C 561.064 734.724, 557.702 733.298, 551.723 730.603 C 548.545 729.172, 545.728 728, 545.462 728 C 545 728, 541.711 726.578, 531.250 721.856 C 528.637 720.676, 524.025 718.631, 521 717.311 C 502.996 709.451, 450.347 683.094, 446.500 680.014 C 445.541 679.246, 442.838 677.685, 433 672.216 C 430.525 670.840, 427.306 668.878, 425.846 667.857 C 424.386 666.836, 422.872 666, 422.483 666 C 422.093 666, 415.188 661.612, 407.137 656.250 C 399.087 650.887, 392.071 646.319, 391.546 646.099 C 391.021 645.878, 390.121 645.306, 389.546 644.829 C 388.971 644.351, 381.680 638.907, 373.346 632.730 C 365.011 626.554, 356.686 620.144, 354.846 618.487 C 353.005 616.831, 347 611.595, 341.500 606.852 C 330.806 597.631, 317.577 584.262, 309.487 574.500 C 306.752 571.200, 303.489 567.375, 302.236 566 C 299.434 562.925, 285.685 543.259, 282.798 538.198 C 267.878 512.037, 260.003 489.734, 257.090 465.387 C 255.769 454.338, 255.672 436.849, 256.898 430.299 C 257.391 427.660, 258.347 422.350, 259.022 418.500 C 260.741 408.686, 268.139 386.877, 273.684 375.277 C 291.339 338.340, 326.857 298.077, 371.583 264.297 C 382.630 255.954, 410.213 236.869, 412.361 236.083 C 412.987 235.854, 416.541 233.717, 420.260 231.333 C 423.978 228.950, 427.236 227, 427.500 227 C 427.764 227, 431.022 225.080, 434.740 222.734 C 438.458 220.387, 443.975 217.157, 447 215.556 C 450.025 213.956, 454.300 211.599, 456.500 210.320 C 462.202 207.005, 512.631 181.863, 518.008 179.655 C 523.512 177.395, 526.561 176.059, 535.275 172.087 C 539.001 170.389, 542.269 169, 542.536 169 C 542.803 169, 544.929 168.129, 547.261 167.065 C 549.592 166, 559.600 161.923, 569.500 158.004 C 579.400 154.085, 588.400 150.500, 589.500 150.037 C 592.693 148.693, 612.283 141.602, 620.500 138.815 C 622.150 138.256, 624.400 137.401, 625.500 136.915 C 630.673 134.631, 693.155 114.491, 704 111.612 C 710.484 109.890, 736.150 102.444, 740.571 101.002 C 742.260 100.451, 744.596 100, 745.762 100 C 746.928 100, 748.160 99.550, 748.500 99 C 748.840 98.450, 750.195 98, 751.512 98 C 752.829 98, 754.940 97.602, 756.203 97.115 C 758.326 96.296, 764.643 94.493, 774.500 91.891 C 781.001 90.175, 784.708 89.262, 800.500 85.491 C 808.750 83.521, 817.075 81.508, 819 81.018 C 822.522 80.121, 825.631 79.403, 838.500 76.519 C 842.350 75.655, 847.300 74.533, 849.500 74.024 C 851.700 73.514, 855.975 72.591, 859 71.972 C 862.025 71.353, 865.882 70.431, 867.571 69.923 C 869.260 69.415, 871.478 69, 872.500 69 C 873.522 69, 875.740 68.577, 877.429 68.061 C 879.118 67.545, 884.325 66.383, 889 65.479 C 893.675 64.575, 899.300 63.459, 901.500 62.999 C 905.582 62.145, 913.169 60.684, 923 58.859 C 926.025 58.297, 930.300 57.440, 932.500 56.955 C 937.147 55.930, 951.628 53.352, 961 51.882 C 964.575 51.322, 968.882 50.444, 970.571 49.931 C 972.260 49.419, 974.813 49, 976.245 49 C 977.676 49, 981.019 48.549, 983.674 47.997 C 986.328 47.445, 995.700 45.862, 1004.500 44.477 C 1013.300 43.093, 1022.975 41.533, 1026 41.010 C 1029.025 40.486, 1033.300 39.827, 1035.500 39.543 C 1037.700 39.260, 1042.425 38.606, 1046 38.090 C 1049.575 37.574, 1057.675 36.405, 1064 35.493 C 1070.325 34.580, 1078.763 33.421, 1082.750 32.917 C 1086.737 32.413, 1093.263 31.577, 1097.250 31.061 C 1119.216 28.215, 1164.405 22.879, 1174.500 21.938 C 1180 21.426, 1188.775 20.542, 1194 19.974 C 1212.398 17.976, 1253.423 14.338, 1272.500 13.013 C 1292.542 11.621, 1295.852 11.040, 1296.567 8.788 C 1296.906 7.722, 1296.880 6.546, 1296.510 6.175 C 1294.711 4.371, 1151.865 3.650, 1087.500 5.120 M 892.081 179.988 C 875.351 180.434, 859.826 181.097, 857.581 181.462 C 855.337 181.827, 844.500 182.544, 833.500 183.056 C 822.500 183.568, 809.450 184.416, 804.500 184.939 C 799.550 185.463, 792.575 186.152, 789 186.472 C 785.425 186.792, 778.450 187.495, 773.500 188.033 C 768.550 188.572, 760 189.499, 754.500 190.094 C 749 190.689, 741.575 191.568, 738 192.047 C 734.425 192.526, 729.475 193.177, 727 193.494 C 724.525 193.811, 720.250 194.481, 717.500 194.983 C 714.750 195.484, 708.450 196.401, 703.500 197.019 C 693.654 198.249, 679.340 200.456, 671.500 201.953 C 668.750 202.479, 663.800 203.382, 660.500 203.960 C 654.530 205.007, 626.675 210.552, 620 212.023 C 618.075 212.447, 614.925 213.090, 613 213.450 C 611.075 213.811, 607.925 214.512, 606 215.010 C 604.075 215.507, 593.950 217.989, 583.500 220.525 C 573.050 223.061, 563.375 225.509, 562 225.966 C 560.625 226.422, 555 228.018, 549.500 229.511 C 544 231.005, 538.600 232.575, 537.500 233 C 536.400 233.424, 533.475 234.337, 531 235.028 C 525.514 236.560, 505.266 242.950, 502.500 244.023 C 501.400 244.449, 499.150 245.256, 497.500 245.815 C 492.046 247.665, 479.535 252.146, 477.500 252.979 C 476.400 253.430, 473.925 254.346, 472 255.015 C 470.075 255.684, 466.125 257.304, 463.223 258.616 C 460.320 259.927, 457.502 261, 456.959 261 C 456.417 261, 455.191 261.413, 454.236 261.918 C 451.575 263.326, 443.088 267, 442.499 267 C 439.830 267, 392.837 290.844, 382.603 297.391 C 379.500 299.376, 376.724 301, 376.433 301 C 375.473 301, 352.612 316.174, 346.500 320.868 C 321.632 339.967, 305.531 356.243, 292.518 375.435 C 280.689 392.882, 274.661 407.652, 271.472 427 C 269.203 440.767, 270.023 455.391, 273.884 470 C 282.345 502.019, 307.674 534.639, 347 564.162 C 354.209 569.574, 375.179 583.290, 383.500 588.036 C 397.752 596.164, 421.511 608.290, 433 613.299 C 434.925 614.138, 439.425 616.135, 443 617.737 C 446.575 619.338, 454.900 622.803, 461.500 625.436 C 468.100 628.069, 474.400 630.583, 475.500 631.023 C 483.948 634.399, 496.818 639, 497.813 639 C 498.481 639, 499.809 639.411, 500.764 639.914 C 501.719 640.416, 507.450 642.381, 513.500 644.280 C 519.550 646.179, 526.975 648.515, 530 649.471 C 533.025 650.426, 536.850 651.580, 538.500 652.035 C 540.150 652.489, 543.975 653.595, 547 654.492 C 553.476 656.412, 566.035 659.811, 571 660.988 C 572.925 661.444, 579 662.994, 584.500 664.434 C 590 665.873, 596.750 667.534, 599.500 668.126 C 602.250 668.718, 606.075 669.561, 608 670 C 609.925 670.439, 613.750 671.277, 616.500 671.862 C 619.250 672.448, 624.650 673.637, 628.500 674.506 C 632.350 675.376, 637.975 676.535, 641 677.082 C 644.025 677.630, 648.525 678.458, 651 678.922 C 653.475 679.387, 660.900 680.711, 667.500 681.866 C 674.100 683.021, 681.750 684.395, 684.500 684.920 C 687.250 685.445, 693.325 686.363, 698 686.961 C 702.675 687.559, 709.538 688.487, 713.250 689.024 C 728.627 691.248, 733.847 692.021, 740.500 693.058 C 744.350 693.659, 752 694.555, 757.500 695.050 C 763 695.544, 772 696.426, 777.500 697.010 C 783 697.593, 790.200 698.282, 793.500 698.542 C 796.800 698.801, 803.325 699.452, 808 699.988 C 812.675 700.523, 822.125 701.197, 829 701.484 C 835.875 701.771, 848.250 702.421, 856.500 702.929 C 864.750 703.436, 889.162 704.416, 910.750 705.105 C 950.303 706.369, 1000.964 705.542, 1044.500 702.920 C 1053.300 702.390, 1065.675 701.729, 1072 701.451 C 1078.325 701.173, 1087.550 700.515, 1092.500 699.988 C 1097.450 699.461, 1104.425 698.778, 1108 698.470 C 1111.575 698.161, 1118.775 697.464, 1124 696.921 C 1129.225 696.378, 1138 695.532, 1143.500 695.043 C 1149 694.553, 1155.975 693.717, 1159 693.185 C 1162.025 692.653, 1168.325 691.701, 1173 691.069 C 1177.675 690.438, 1183.975 689.516, 1187 689.021 C 1190.025 688.525, 1196.550 687.611, 1201.500 686.991 C 1209.776 685.953, 1231.081 682.430, 1243.750 680.005 C 1246.638 679.452, 1251.588 678.507, 1254.750 677.904 C 1265.280 675.897, 1269.426 675.035, 1279 672.866 C 1284.225 671.682, 1290.412 670.328, 1292.750 669.857 C 1303.232 667.744, 1310.997 665.889, 1323.500 662.512 C 1329 661.027, 1335.075 659.449, 1337 659.005 C 1343.351 657.542, 1356.408 653.926, 1362 652.082 C 1365.025 651.084, 1369.525 649.688, 1372 648.979 C 1377.031 647.538, 1413.201 635.400, 1422.500 632.032 C 1429.653 629.441, 1430.788 628.978, 1438.277 625.603 C 1441.455 624.172, 1444.498 623, 1445.041 623 C 1445.583 623, 1446.809 622.603, 1447.764 622.117 C 1448.719 621.631, 1450.625 620.746, 1452 620.150 C 1469.204 612.699, 1472.750 611.079, 1487 604.164 C 1493.325 601.095, 1499.625 597.848, 1501 596.949 C 1502.375 596.051, 1505.975 594.014, 1509 592.424 C 1512.025 590.834, 1517.542 587.613, 1521.260 585.266 C 1524.978 582.920, 1528.276 581, 1528.589 581 C 1529.479 581, 1554.712 563.266, 1562.500 557.168 C 1570.287 551.070, 1586.653 534.971, 1595.200 525 C 1607.644 510.485, 1618.925 491.287, 1623.996 476 C 1628.981 460.971, 1630.729 445.991, 1629.105 432.210 C 1628.411 426.319, 1627.441 420.150, 1626.949 418.500 C 1624.772 411.193, 1621.720 402.219, 1620.319 399 C 1617.067 391.528, 1616.458 390.336, 1613.280 385.231 C 1611.476 382.332, 1610 379.693, 1610 379.365 C 1610 378.786, 1604.041 370.375, 1601.002 366.666 C 1578.292 338.940, 1558.772 322.240, 1524.500 301.217 C 1511.728 293.382, 1479.281 276.360, 1468 271.577 C 1465.525 270.528, 1460.800 268.440, 1457.500 266.937 C 1452.519 264.670, 1444.823 261.502, 1428.500 254.999 C 1427.400 254.560, 1424.925 253.661, 1423 253 C 1421.075 252.339, 1418.600 251.430, 1417.500 250.979 C 1414.097 249.586, 1401.709 245.228, 1397.500 243.944 C 1395.300 243.272, 1392.600 242.364, 1391.500 241.925 C 1386.904 240.092, 1357.340 231.114, 1345.500 227.955 C 1341.100 226.781, 1336.150 225.442, 1334.500 224.978 C 1329.837 223.668, 1328.488 223.332, 1312.500 219.502 C 1304.250 217.526, 1295.925 215.513, 1294 215.029 C 1292.075 214.545, 1287.800 213.614, 1284.500 212.960 C 1281.200 212.306, 1277.150 211.396, 1275.500 210.938 C 1273.850 210.480, 1269.800 209.584, 1266.500 208.948 C 1263.200 208.311, 1258.475 207.389, 1256 206.900 C 1251.837 206.076, 1247.575 205.314, 1234.500 203.057 C 1231.750 202.583, 1225.450 201.467, 1220.500 200.578 C 1215.550 199.690, 1207.900 198.471, 1203.500 197.870 C 1199.100 197.269, 1193.025 196.407, 1190 195.953 C 1184.625 195.148, 1176.606 194.030, 1162.500 192.122 C 1158.650 191.602, 1151 190.689, 1145.500 190.094 C 1140 189.499, 1131.450 188.571, 1126.500 188.032 C 1121.550 187.493, 1114.350 186.782, 1110.500 186.452 C 1106.650 186.122, 1099.225 185.418, 1094 184.887 C 1088.775 184.356, 1076.400 183.511, 1066.500 183.009 C 1056.600 182.508, 1041.750 181.653, 1033.500 181.110 C 1012.080 179.701, 927.913 179.033, 892.081 179.988" stroke="none" fill="#cccc04" fill-rule="evenodd"/></svg>